<svg xmlns="http://www.w3.org/2000/svg"  viewBox="0 0 72 72" width="512px" height="512px"><path d="M 26.820312 6.0292969 C 23.310313 12.239297 21.419922 21.149922 21.419922 21.419922 C 21.419922 21.689922 21.96 22.23 22.5 22.5 C 23.04 22.77 23.310547 23.310547 23.310547 23.310547 C 24.310547 22.461547 26.579687 22.451172 27.929688 22.451172 C 29.279687 22.451172 29.795609 22.357 30.599609 22.5 C 31.254609 22.616 31.925703 24.053156 32.220703 24.660156 C 31.658703 24.530156 30.870547 24.389609 30.060547 23.849609 C 29.250547 23.309609 28.440859 23.579609 27.630859 23.849609 C 26.867859 24.104609 21.309672 25.317766 18.638672 26.134766 C 18.514672 14.435766 23.039062 6.5703125 23.039062 6.5703125 C 17.099062 14.940312 16.830547 23.850156 16.560547 24.660156 C 16.290547 25.470156 16.019531 25.740234 16.019531 25.740234 L 18.720703 28.439453 C 21.960703 26.009453 27.360938 25.199219 28.710938 25.199219 C 30.060938 25.199219 30.676219 25.623781 31.949219 26.550781 C 30.599219 27.090781 28.439844 27.090312 27.089844 26.820312 C 25.469844 28.980312 16.290469 36.269531 15.480469 36.269531 L 14.400391 35.730469 C 13.320391 48.150469 20.609375 60.029297 20.609375 60.029297 C 16.829375 51.659297 16.560547 41.400234 16.560547 39.240234 C 16.560547 38.430234 16.830625 38.159609 17.640625 37.349609 C 18.450625 36.539609 27.359922 28.709453 28.169922 28.439453 C 28.927966 28.186772 30.522979 28.201576 31.451172 28.175781 C 29.557038 30.165722 27.53424 31.949219 27.359375 31.949219 C 27.089375 31.949219 26.550781 31.679688 26.550781 31.679688 C 25.470781 57.329688 32.759766 65.970703 32.759766 65.970703 C 27.359766 55.440703 29.25 37.349453 29.25 35.189453 C 29.25 34.919453 29.250469 34.650859 28.980469 34.380859 C 28.980469 34.380859 28.702469 33.492297 28.980469 33.029297 C 30.126244 31.119671 32.17464 29.656608 33.300781 28.939453 L 33.300781 29.070312 C 33.300781 29.537313 33.147188 29.991234 32.867188 30.365234 L 32.324219 31.091797 C 31.918219 31.631797 31.788609 32.330469 31.974609 32.980469 L 35.484375 45.263672 C 35.633375 45.782672 36.367625 45.782672 36.515625 45.263672 L 40.025391 32.980469 C 40.211391 32.331469 40.080781 31.632797 39.675781 31.091797 L 39.132812 30.365234 C 38.852812 29.991234 38.699219 29.537312 38.699219 29.070312 L 38.699219 28.939453 C 39.82536 29.656608 41.873756 31.119671 43.019531 33.029297 C 43.297531 33.492297 43.019531 34.380859 43.019531 34.380859 C 42.749531 34.650859 42.75 34.919453 42.75 35.189453 C 42.75 37.349453 44.640234 55.440703 39.240234 65.970703 C 39.240234 65.970703 46.529219 57.329687 45.449219 31.679688 C 45.449219 31.679688 44.910625 31.949219 44.640625 31.949219 C 44.46576 31.949219 42.442962 30.165722 40.548828 28.175781 C 41.477021 28.201576 43.072034 28.186772 43.830078 28.439453 C 44.640078 28.709453 53.549375 36.539609 54.359375 37.349609 C 55.169375 38.159609 55.439453 38.430234 55.439453 39.240234 C 55.439453 41.400234 55.170625 51.659297 51.390625 60.029297 C 51.390625 60.029297 58.679609 48.150469 57.599609 35.730469 L 56.519531 36.269531 C 55.709531 36.269531 46.530156 28.980313 44.910156 26.820312 C 43.560156 27.090312 41.400781 27.090781 40.050781 26.550781 C 41.322781 25.623781 41.939062 25.199219 43.289062 25.199219 C 44.639062 25.199219 50.039297 26.009453 53.279297 28.439453 L 55.980469 25.740234 C 55.980469 25.740234 55.709453 25.470156 55.439453 24.660156 C 55.169453 23.850156 54.900937 14.940312 48.960938 6.5703125 C 48.960938 6.5703125 53.485328 14.435766 53.361328 26.134766 C 50.690328 25.317766 45.132141 24.104609 44.369141 23.849609 C 43.559141 23.579609 42.749453 23.309609 41.939453 23.849609 C 41.129453 24.389609 40.341297 24.530156 39.779297 24.660156 C 40.074297 24.053156 40.745391 22.616 41.400391 22.5 C 42.204391 22.357 42.720312 22.451172 44.070312 22.451172 C 45.420312 22.451172 47.689453 22.462547 48.689453 23.310547 C 48.689453 23.310547 48.96 22.77 49.5 22.5 C 50.04 22.23 50.580078 21.689922 50.580078 21.419922 C 50.580078 21.149922 48.689687 12.239297 45.179688 6.0292969 C 45.179688 6.0292969 48.150391 13.860391 48.150391 21.150391 C 48.150391 21.156391 48.150391 21.160969 48.150391 21.167969 C 47.423391 21.214969 46.651219 21.419922 45.449219 21.419922 C 44.099219 21.419922 41.130859 20.880859 41.130859 20.880859 L 38.5625 23.447266 C 38.675326 21.95273 37.080078 21.419922 37.080078 21.419922 C 37.653946 21.99379 37.681264 22.702584 37.458984 23.355469 L 37.080078 23.039062 L 36.539062 23.310547 L 35.460938 23.310547 L 34.919922 23.039062 L 34.541016 23.355469 C 34.318736 22.702584 34.346054 21.99379 34.919922 21.419922 C 34.919922 21.419922 33.324674 21.95273 33.4375 23.447266 L 30.869141 20.880859 C 30.869141 20.880859 27.900781 21.419922 26.550781 21.419922 C 25.348781 21.419922 24.576609 21.214969 23.849609 21.167969 C 23.849609 21.161969 23.849609 21.157391 23.849609 21.150391 C 23.849609 13.860391 26.820312 6.0292969 26.820312 6.0292969 z"/></svg>